<?xml version="1.0" encoding="UTF-8"?>
<svg width="23px" height="23px" viewBox="0 0 23 23" version="1.1" xmlns="http://www.w3.org/2000/svg" xmlns:xlink="http://www.w3.org/1999/xlink">
    <title>5416C1D8-ECD0-4F77-9D41-05A976B5FA00</title>
    <g id="Admin-console" stroke="none" stroke-width="1" fill="none" fill-rule="evenodd">
        <g id="Admin---Groups" transform="translate(-38.000000, -478.000000)" fill="#224743" fill-rule="nonzero">
            <g id="icon-nav/administration" transform="translate(38.000000, 478.000000)">
                <g id="Group-2" transform="translate(11.500000, 11.500000) rotate(45.000000) translate(-11.500000, -11.500000) translate(8.000000, -1.000000)">
                    <path d="M5,-5.32907052e-14 C6.1045695,-5.32907052e-14 7,0.8954305 7,2 L7,20 L3.5,24.6538774 L-1.13686838e-12,20 L-1.13686838e-12,2 C-1.13686838e-12,0.8954305 0.8954305,-5.32907052e-14 2,-5.32907052e-14 L5,-5.32907052e-14 Z M4.999,6 L1.999,6 L2,19.332 L3.5,21.325 L5,19.33 L4.999,6 Z M5,2 L2,2 L1.999,5 L4.999,5 L5,2 Z" id="Combined-Shape"></path>
                </g>
            </g>
        </g>
    </g>
</svg>