<?xml version="1.0" encoding="UTF-8"?>
<svg width="20px" height="20px" viewBox="0 0 20 20" version="1.1" xmlns="http://www.w3.org/2000/svg" xmlns:xlink="http://www.w3.org/1999/xlink">
    <title>DBDB003D-0A3E-4D13-B78A-58BCD0219B0A</title>
    <g id="Admin-console" stroke="none" stroke-width="1" fill="none" fill-rule="evenodd">
        <g id="Admin---Groups" transform="translate(-1360.000000, -33.000000)">
            <rect id="Area" fill="#FFFFFF" fill-rule="nonzero" x="0" y="0" width="1440" height="90"></rect>
            <rect id="Area" stroke="#D8D8D8" stroke-width="0.677966102" fill="#FFFFFF" fill-rule="nonzero" x="1350.33898" y="24.3389831" width="39.3220339" height="39.3220339" rx="4"></rect>
            <g id="icon-employee" transform="translate(1360.000000, 33.000000)" fill="#224743">
                <path d="M19.2269478,14.6201765 C20.3498594,18.034901 19.2269478,18 19.2269478,18 C19.2269478,18 13.0446204,20 9.95345672,20 C6.76449702,20 0.386577609,18 0.386577609,18 L0.383368162,17.9949035 L0.359832221,17.9546553 C0.220161865,17.7049225 -0.390029194,16.4419096 0.386577609,14.6201765 C1.25637723,12.5798354 2.53650942,10.5121522 4.95478604,11.0773542 C5.41338707,11.4075514 5.88163863,11.8245732 6.34670822,12.2577335 L6.74426074,12.6313173 C7.86675561,13.6916606 8.94885888,14.7280726 9.80676268,14.7280726 C10.7302361,14.7280726 11.9375722,13.7715973 13.1782632,12.7993388 L13.6445965,12.4358393 C14.344974,11.8949921 15.0459974,11.3863561 15.7030817,11.0773542 C17.6598445,10.1571625 18.1040361,11.2054519 19.2269478,14.6201765 Z M9.8630098,1.77635684e-15 C12.3390052,1.77635684e-15 14.3461961,2.40862904 14.3461961,5.37982353 C14.3461961,8.35101802 12.3390052,10.7596471 9.8630098,10.7596471 C7.38701439,10.7596471 5.37982353,8.35101802 5.37982353,5.37982353 C5.37982353,2.40862904 7.38701439,1.77635684e-15 9.8630098,1.77635684e-15 Z" id="Icon---Employee"></path>
            </g>
        </g>
    </g>
</svg>