<?xml version="1.0" encoding="UTF-8"?>
<svg width="20px" height="22px" viewBox="0 0 20 22" version="1.1" xmlns="http://www.w3.org/2000/svg" xmlns:xlink="http://www.w3.org/1999/xlink">
    <title>976541DE-74A3-4B01-A1C6-FAE79722B650</title>
    <g id="Admin-console" stroke="none" stroke-width="1" fill="none" fill-rule="evenodd">
        <g id="Admin---Groups" transform="translate(-40.000000, -159.000000)" stroke="#224743" stroke-width="2">
            <g id="icon-nav/personal" transform="translate(40.000000, 159.000000)">
                <path d="M16.8429147,11.7597676 C17.4565794,12.3118198 17.7580442,13.3544636 18.2769928,14.9325634 C18.9831063,17.0798232 18.6790038,18.5716301 18.4802984,19.18762 C17.0475468,19.633752 12.4555854,21 9.95345672,21 C7.4168511,21 2.80182483,19.6838295 1.2284199,19.2115744 C1.03456368,18.2807189 0.740993661,16.3388191 1.30647712,15.0123306 C1.72958316,14.0198254 2.23890988,12.9942788 3.00649367,12.3989879 C3.42351511,12.0755716 3.92794447,11.9163431 4.54557496,12.0152716 C6.60129202,13.5060367 8.46805434,14.7280726 9.80676268,14.7280726 C10.8801607,14.7280726 12.3105706,14.0627195 13.7676823,13.2532655 L13.7676823,13.2532655 L14.3166005,12.9461978 C14.9342776,12.5996397 15.5489364,12.2548979 16.1286372,11.9822865 C16.4125634,11.8487667 16.6417309,11.754498 16.8429147,11.7597676 Z M9.8630098,1 C10.8074662,1 11.6501878,1.47826762 12.2648799,2.21589823 C12.9396459,3.02561733 13.3461961,4.1469637 13.3461961,5.37982353 C13.3461961,6.61268336 12.9396459,7.73402973 12.2648799,8.54374883 C11.6501878,9.28137943 10.8074662,9.75964706 9.8630098,9.75964706 C8.9185534,9.75964706 8.07583184,9.28137943 7.46113967,8.54374883 C6.78637375,7.73402973 6.37982353,6.61268336 6.37982353,5.37982353 C6.37982353,4.1469637 6.78637375,3.02561733 7.46113967,2.21589823 C8.07583184,1.47826762 8.9185534,1 9.8630098,1 Z" id="Icon"></path>
            </g>
        </g>
    </g>
</svg>