<?xml version="1.0" encoding="UTF-8"?>
<svg width="25px" height="22px" viewBox="0 0 25 22" version="1.1" xmlns="http://www.w3.org/2000/svg" xmlns:xlink="http://www.w3.org/1999/xlink">
    <title>C52CCF9F-54A6-49F3-80B9-C2ED5C0827B4</title>
    <g id="Admin-console" stroke="none" stroke-width="1" fill="none" fill-rule="evenodd">
        <g id="Admin---Groups" transform="translate(-38.000000, -399.000000)" fill="#224743" fill-rule="nonzero">
            <g id="icon-users" transform="translate(38.000000, 399.000000)">
                <path d="M16.7950257,19.6891904 L16.7349559,19.8798942 L16.6784301,20.0337561 L16.5930211,20.2283455 L16.5698969,20.2727273 L15.6966553,20.5423509 L14.842272,20.7913459 L14.0203514,21.0182878 L13.1143617,21.2530498 L12.6410811,21.3685046 L12.1602714,21.4800842 L11.6764287,21.5858451 L11.1940489,21.6838438 L10.7176283,21.7721369 C10.6389712,21.7859357 10.5607497,21.799249 10.4830576,21.8120365 L10.0240056,21.8821273 L9.58215272,21.9376539 C9.29431634,21.9693851 9.02094344,21.9901112 8.76802876,21.997241 L8.57794769,22 C8.39056603,22 8.19040835,21.9919703 7.98008793,21.9770059 L7.54667107,21.9381553 C7.47243464,21.9302473 7.39726259,21.9216498 7.32125171,21.9124035 L6.85589479,21.8494638 L6.37505178,21.772898 C6.29387888,21.7591097 6.21225429,21.7448347 6.13027482,21.7301136 L5.6349136,21.6367585 L5.13568087,21.5346437 L4.3897354,21.3693054 L3.66121179,21.1952074 L2.52830772,20.9034219 L1.73696867,20.6860529 L0.828709653,20.4232634 L0.333154862,20.2727273 L0.265217707,19.97765 L0.198639295,19.6414803 L0.150479401,19.3622959 L0.103527278,19.0465849 C0.0960038671,18.9912811 0.0886817515,18.9347243 0.0816364169,18.877049 L0.0432896671,18.5186507 C-0.0412543482,17.5944782 -0.0295540604,16.4791513 0.333154862,15.626516 C0.986030923,14.0917727 1.90716308,12.5391163 3.51096569,12.4864915 L3.69199637,12.4868944 C3.87587851,12.4936245 4.06837817,12.5195676 4.27006382,12.5668059 L5.20717683,13.2454221 L5.67726103,13.5772586 C6.69258391,14.2802208 7.67784436,14.8560627 8.4515259,14.8560627 C9.05587815,14.8560627 9.80129902,14.5546088 10.593252,14.1500553 L11.1270768,13.8672557 L12.4811092,13.1123174 C12.8398414,12.9145668 13.1932409,12.7269251 13.5330084,12.5668059 C13.8801981,12.4031889 14.1721337,12.311633 14.4252958,12.2951374 L14.531468,12.2926721 C15.1077355,12.3045849 15.4782047,12.7430705 15.8642527,13.6484178 L16.0101834,14.0098859 L16.1601688,14.4155944 L16.3984247,15.1081408 L16.5698969,15.626516 C17.204971,17.56185 17.0065103,18.9580143 16.7950257,19.6891904 Z M14.206,14.154 L13.8712329,14.3218021 L13.3887666,14.5803359 L12.3524165,15.1591101 L11.8384079,15.441656 L11.3730777,15.6885206 C10.1173765,16.3389823 9.36845571,16.5796744 8.4515259,16.5796744 C7.42138222,16.5796744 6.51725242,16.2018793 5.22024019,15.3494103 L4.71443076,15.0072949 C4.62672198,14.9465042 4.53722512,14.883812 4.44581352,14.8191946 L3.612,14.218 L3.52820621,14.2257258 C3.01929779,14.2980943 2.56362236,14.8430296 2.01206127,16.0873273 L1.91922102,16.3012247 C1.81517645,16.5458067 1.7473912,16.9080718 1.72884679,17.3545993 C1.7102648,17.8020319 1.74129413,18.2951762 1.80879916,18.7959416 L1.827,18.919 L2.23177219,19.0347743 C2.58077898,19.1328565 2.9382238,19.2301062 3.29993764,19.3248171 L3.84518904,19.464766 C4.444404,19.6154077 5.02362425,19.7502364 5.57237981,19.8651999 L5.88450595,19.9290728 L6.4789645,20.0414738 C7.33957853,20.1944624 8.05652035,20.2763882 8.57794769,20.2763882 C9.24292004,20.2763882 10.2475801,20.1316324 11.4698156,19.8674748 C12.0003682,19.7528083 12.560569,19.6182813 13.1402098,19.4679503 C13.6110687,19.3458322 14.0782178,19.2176805 14.5320573,19.087543 L15.216,18.887 L15.24457,18.7104605 C15.3295835,18.0911563 15.278117,17.3351074 15.016927,16.4374651 L14.932205,16.1639198 L14.644119,15.3056533 L14.4154005,14.6678005 L14.2771602,14.3169797 L14.206,14.154 Z M24.0421065,16.6891904 L23.9820367,16.8798942 L23.9255108,17.0337561 L23.8401019,17.2283455 L23.8169777,17.2727273 L23.2681048,17.4442562 L22.0467797,17.8034073 L21.46452,17.9650259 L20.6169138,18.1886005 L20.1713586,18.3000535 L19.4868206,18.4620667 L19.017391,18.5658759 L19.1030992,16.9887776 L19.0421169,16.7944225 L19.1202103,16.7778144 C19.5287643,16.684557 19.9525599,16.5806985 20.3872905,16.4679503 C20.8581494,16.3458322 21.3252986,16.2176805 21.7791381,16.087543 L22.4630833,15.8870519 C22.5957669,15.1774104 22.543054,14.2724725 22.1792858,13.1639198 L21.8955348,12.3182066 L21.6693212,11.6860058 L21.5320399,11.3357436 L21.4538414,11.1549071 L21.0743709,11.3446021 L20.4629978,11.6758369 L19.2967351,12.3265106 L18.7763234,12.606904 L18.3073512,12.8471827 C18.2330186,12.8840008 18.1604865,12.9192334 18.0895833,12.9529234 L17.8815893,13.0494087 L17.3641169,11.3822351 C17.729566,11.213815 18.1098569,11.0130199 18.4948489,10.8011267 L19.6537876,10.1534299 C20.0380412,9.94061751 20.4168553,9.73798387 20.7800892,9.56680588 C21.1272788,9.40318891 21.4192145,9.31163297 21.6723765,9.29513736 L21.7785487,9.29267208 C22.3548162,9.30458491 22.7252854,9.74307047 23.1113335,10.6484178 L23.2572641,11.0098859 L23.4072496,11.4155944 L23.6455054,12.1081408 L23.8169777,12.626516 C24.4520517,14.56185 24.2535911,15.9580143 24.0421065,16.6891904 Z M8.5,3 C10.6338274,3 12.3636364,5.08017962 12.3636364,7.64621123 C12.3636364,10.1367713 10.7340845,12.1696387 8.68719667,12.2870646 L8.5,12.2924225 C6.36617256,12.2924225 4.63636364,10.2122428 4.63636364,7.64621123 C4.63636364,5.15565114 6.26591547,3.12278379 8.31280333,3.00535783 L8.5,3 Z M8.5,4.72361179 C7.39564466,4.72361179 6.35997543,5.96905457 6.35997543,7.64621123 C6.35997543,9.32336789 7.39564466,10.5688107 8.5,10.5688107 C9.60435534,10.5688107 10.6400246,9.32336789 10.6400246,7.64621123 C10.6400246,5.96905457 9.60435534,4.72361179 8.5,4.72361179 Z M15.7470807,-5.77315973e-14 C17.8809082,-5.77315973e-14 19.6107171,2.08017962 19.6107171,4.64621123 C19.6107171,7.13677132 17.9811653,9.16963866 15.9342774,9.28706463 L15.7470807,9.29242246 C15.1976452,9.29242246 14.6749962,9.15450611 14.2017669,8.90589103 C14.2863099,8.45195716 14.3307219,7.98210807 14.3307219,7.5 C14.3307219,7.3375077 14.3256768,7.17640802 14.3157614,7.0169078 L14.2972577,6.77888294 C14.6897117,7.27455215 15.210282,7.56881067 15.7470807,7.56881067 C16.8514361,7.56881067 17.8871053,6.32336789 17.8871053,4.64621123 C17.8871053,3.03356059 16.9295709,1.82005371 15.8741465,1.72909261 L15.7470807,1.72361179 C14.7633072,1.72361179 13.8340393,2.71192908 13.6428389,4.11333747 L13.6214051,4.30694507 C13.2886086,3.60857722 12.8483231,2.99019617 12.3277102,2.48279965 C12.9445976,1.07362944 14.1469449,0.092472925 15.54593,0.0061883869 L15.7470807,-5.77315973e-14 Z" id="Combined-Shape"></path>
            </g>
        </g>
    </g>
</svg>